<?xml version="1.0" standalone="no"?>
<!DOCTYPE svg PUBLIC "-//W3C//DTD SVG 20010904//EN"
 "http://www.w3.org/TR/2001/REC-SVG-20010904/DTD/svg10.dtd">
<svg version="1.0" xmlns="http://www.w3.org/2000/svg"
 width="512.000000pt" height="512.000000pt" viewBox="0 0 512.000000 512.000000"
 preserveAspectRatio="xMidYMid meet">

<g transform="translate(0.000000,512.000000) scale(0.100000,-0.100000)"
fill="#000000" stroke="none">
<path d="M412 5100 c-97 -26 -173 -70 -248 -144 -75 -76 -119 -151 -144 -252
-20 -76 -20 -115 -20 -2144 0 -2029 0 -2068 20 -2144 25 -101 69 -176 144
-252 76 -75 151 -119 252 -144 76 -20 115 -20 2144 -20 2029 0 2068 0 2144 20
101 25 176 69 252 144 75 76 119 151 144 252 20 76 20 115 20 2144 0 2029 0
2068 -20 2144 -26 103 -69 177 -149 256 -79 77 -142 114 -247 140 -76 20 -117
20 -2148 19 -2010 0 -2073 -1 -2144 -19z m1673 -1230 c42 -85 52 -99 69 -95
141 33 660 33 801 0 17 -3 27 11 67 96 l47 101 43 -7 c161 -25 436 -106 628
-186 106 -44 101 -39 222 -241 211 -356 349 -740 408 -1143 24 -164 36 -457
25 -638 l-7 -129 -67 -49 c-100 -73 -303 -192 -442 -258 -136 -64 -386 -161
-417 -161 -21 0 -98 109 -170 241 l-42 76 87 37 c103 43 213 103 213 116 0 4
-14 20 -30 34 l-30 25 -78 -33 c-423 -180 -886 -222 -1335 -121 -122 27 -301
85 -402 130 l-57 25 -34 -26 c-19 -15 -34 -30 -34 -35 0 -10 259 -139 278
-139 25 0 21 -25 -16 -94 -64 -119 -145 -236 -164 -236 -41 0 -306 104 -463
182 -128 64 -191 101 -342 201 l-121 80 -7 106 c-12 172 1 518 25 676 67 442
225 856 472 1241 l59 92 122 50 c179 73 333 120 582 175 56 13 59 11 110 -93z"/>
<path d="M1838 2776 c-173 -62 -270 -283 -209 -473 101 -312 471 -339 609 -45
24 51 27 69 27 167 0 98 -3 116 -26 165 -38 79 -90 134 -161 169 -51 26 -72
31 -132 31 -39 -1 -88 -7 -108 -14z"/>
<path d="M3051 2770 c-141 -65 -218 -201 -209 -374 5 -97 36 -172 98 -240 94
-102 242 -132 362 -73 71 35 140 110 170 185 18 46 22 77 23 157 0 92 -3 105
-32 167 -37 80 -96 141 -166 174 -68 31 -181 33 -246 4z"/>
</g>
</svg>
