<?xml version="1.0" standalone="no"?>
<!DOCTYPE svg PUBLIC "-//W3C//DTD SVG 20010904//EN"
 "http://www.w3.org/TR/2001/REC-SVG-20010904/DTD/svg10.dtd">
<svg version="1.0" xmlns="http://www.w3.org/2000/svg"
 width="512.000000pt" height="512.000000pt" viewBox="0 0 512.000000 512.000000"
 preserveAspectRatio="xMidYMid meet">

<g transform="translate(0.000000,512.000000) scale(0.100000,-0.100000)"
fill="#000000" stroke="none">
<path d="M572 5109 c-279 -47 -519 -292 -562 -575 -7 -47 -10 -687 -8 -2019
l3 -1950 28 -80 c79 -223 229 -373 452 -452 l80 -28 1995 0 1995 0 80 28 c231
82 390 248 462 482 17 57 18 148 18 2050 l0 1990 -28 80 c-79 223 -229 373
-452 452 l-80 28 -1965 1 c-1109 1 -1988 -2 -2018 -7z m2323 -974 c238 -50
418 -142 578 -294 231 -220 341 -500 323 -821 -20 -372 -135 -672 -337 -885
-173 -182 -363 -271 -599 -282 -193 -9 -332 39 -446 153 l-60 60 -54 -215
c-86 -352 -131 -470 -250 -662 -71 -115 -158 -229 -174 -229 -8 0 -17 8 -20
18 -26 86 -37 469 -16 597 6 39 65 301 132 583 l121 514 -23 71 c-31 99 -39
286 -16 377 57 223 218 356 390 320 76 -16 132 -59 163 -126 51 -112 42 -205
-52 -519 -98 -328 -103 -371 -61 -460 94 -200 360 -226 558 -55 59 51 147 182
189 281 96 226 135 582 84 780 -46 179 -173 337 -335 416 -182 89 -393 112
-619 66 -382 -76 -665 -405 -688 -798 -10 -170 22 -287 111 -410 42 -58 43
-71 13 -189 -18 -70 -29 -94 -49 -109 l-26 -20 -67 32 c-148 69 -266 232 -316
436 -29 116 -31 340 -6 453 40 176 124 347 238 484 215 259 504 404 899 452
77 9 338 -3 415 -19z"/>
</g>
</svg>
