<?xml version="1.0" standalone="no"?>
<!DOCTYPE svg PUBLIC "-//W3C//DTD SVG 20010904//EN"
 "http://www.w3.org/TR/2001/REC-SVG-20010904/DTD/svg10.dtd">
<svg version="1.0" xmlns="http://www.w3.org/2000/svg"
 width="512.000000pt" height="512.000000pt" viewBox="0 0 512.000000 512.000000"
 preserveAspectRatio="xMidYMid meet">

<g transform="translate(0.000000,512.000000) scale(0.100000,-0.100000)"
fill="#000000" stroke="none">
<path d="M572 5109 c-279 -47 -519 -292 -562 -575 -7 -47 -10 -687 -8 -2019
l3 -1950 28 -80 c79 -223 229 -373 452 -452 l80 -28 1995 0 1995 0 80 28 c231
82 390 248 462 482 17 57 18 148 18 2050 l0 1990 -28 80 c-79 223 -229 373
-452 452 l-80 28 -1965 1 c-1109 1 -1988 -2 -2018 -7z m2188 -963 c199 -27
349 -74 531 -168 762 -391 1073 -1335 692 -2103 -156 -314 -393 -555 -704
-714 -418 -213 -910 -230 -1346 -45 l-82 35 -403 -95 c-222 -53 -409 -96 -417
-96 -24 0 -51 31 -51 59 0 14 37 206 82 425 81 394 81 400 66 440 -9 23 -33
84 -53 136 -126 323 -133 707 -20 1055 38 115 136 309 208 412 77 110 266 299
374 376 325 230 737 334 1123 283z"/>
<path d="M2485 3813 c-187 -15 -335 -57 -495 -139 -540 -277 -798 -905 -610
-1487 16 -50 52 -135 79 -189 l48 -96 -49 -238 c-27 -131 -47 -243 -46 -250 2
-7 80 7 243 46 l240 57 95 -47 c421 -209 890 -180 1274 80 451 303 648 893
474 1415 -124 372 -424 670 -793 788 -107 34 -162 45 -275 57 -94 10 -107 10
-185 3z m-400 -487 c38 -16 47 -32 136 -233 32 -75 59 -150 59 -169 0 -24 -14
-51 -55 -105 -67 -88 -71 -120 -24 -195 38 -61 219 -240 319 -316 156 -119
225 -147 283 -117 12 7 50 38 84 70 50 48 67 59 95 59 18 0 110 -23 203 -50
145 -42 174 -53 198 -80 19 -22 27 -41 27 -69 0 -82 -147 -249 -257 -292 -77
-30 -253 -33 -358 -5 -253 67 -558 281 -781 549 -177 211 -248 375 -249 567 0
99 2 109 33 173 22 44 58 92 103 138 90 91 118 102 184 75z"/>
</g>
</svg>
